<svg version="1.1" xmlns="http://www.w3.org/2000/svg" xmlns:xlink="http://www.w3.org/1999/xlink" width="549" height="335"><defs></defs><g><g transform="translate(-110,-142) scale(1,1)"><rect fill="#C0C0C0" stroke="none" x="127" y="159" width="238" height="135" opacity="0.2"></rect></g><g transform="translate(-110,-142) scale(1,1)"><rect fill="#ffffff" stroke="none" x="120" y="152" width="238" height="135"></rect></g><g transform="translate(-110,-142) scale(1,1)"><path fill="none" stroke="#000000" d="M 120 152 L 358 152 L 358 287 L 120 287 L 120 152 Z Z" stroke-miterlimit="10"></path></g><g transform="translate(-110,-142) scale(1,1)"><path fill="none" stroke="#000000" d="M 120 175 L 358 175" stroke-miterlimit="10"></path></g><g transform="translate(-110,-142) scale(1,1)"><path fill="none" stroke="#000000" d="M 148 175 L 148 287" stroke-miterlimit="10"></path></g><g transform="translate(-110,-142) scale(1,1)"><path fill="none" stroke="#000000" d="M 253 175 L 253 287" stroke-miterlimit="10"></path></g><g transform="translate(-110,-142) scale(1,1)"><g><path fill="none" stroke="none"></path><text fill="#000000" stroke="none" font-family="Arial" font-size="13px" font-style="normal" font-weight="bold" text-decoration="none" x="216" y="169.5">Building</text></g></g><g transform="translate(-110,-142) scale(1,1)"><g><path fill="none" stroke="none"></path><text fill="#000000" stroke="none" font-family="Arial" font-size="13px" font-style="normal" font-weight="normal" text-decoration="none" x="125" y="193">PK</text></g></g><g transform="translate(-110,-142) scale(1,1)"><g><path fill="none" stroke="none"></path><text fill="#000000" stroke="none" font-family="Arial" font-size="13px" font-style="normal" font-weight="normal" text-decoration="none" x="153" y="193">building_id</text></g></g><g transform="translate(-110,-142) scale(1,1)"><g><path fill="none" stroke="none"></path><text fill="#000000" stroke="none" font-family="Arial" font-size="13px" font-style="normal" font-weight="normal" text-decoration="none" x="258" y="193">INTEGER(11)</text></g></g><g transform="translate(-110,-142) scale(1,1)"><g><path fill="none" stroke="none"></path><text fill="#000000" stroke="none" font-family="Arial" font-size="13px" font-style="normal" font-weight="normal" text-decoration="none" x="125" y="208"></text></g></g><g transform="translate(-110,-142) scale(1,1)"><g><path fill="none" stroke="none"></path><text fill="#000000" stroke="none" font-family="Arial" font-size="13px" font-style="normal" font-weight="normal" text-decoration="none" x="153" y="208">building_name</text></g></g><g transform="translate(-110,-142) scale(1,1)"><g><path fill="none" stroke="none"></path><text fill="#000000" stroke="none" font-family="Arial" font-size="13px" font-style="normal" font-weight="normal" text-decoration="none" x="258" y="208">VARCHAR(255)</text></g></g><g transform="translate(-110,-142) scale(1,1)"><g><path fill="none" stroke="none"></path><text fill="#000000" stroke="none" font-family="Arial" font-size="13px" font-style="normal" font-weight="normal" text-decoration="none" x="125" y="223"></text></g></g><g transform="translate(-110,-142) scale(1,1)"><g><path fill="none" stroke="none"></path><text fill="#000000" stroke="none" font-family="Arial" font-size="13px" font-style="normal" font-weight="normal" text-decoration="none" x="153" y="223">desc</text></g></g><g transform="translate(-110,-142) scale(1,1)"><g><path fill="none" stroke="none"></path><text fill="#000000" stroke="none" font-family="Arial" font-size="13px" font-style="normal" font-weight="normal" text-decoration="none" x="258" y="223">TEXT</text></g></g><g transform="translate(-110,-142) scale(1,1)"><g><path fill="none" stroke="none"></path><text fill="#000000" stroke="none" font-family="Arial" font-size="13px" font-style="normal" font-weight="normal" text-decoration="none" x="125" y="238"></text></g></g><g transform="translate(-110,-142) scale(1,1)"><g><path fill="none" stroke="none"></path><text fill="#000000" stroke="none" font-family="Arial" font-size="13px" font-style="normal" font-weight="normal" text-decoration="none" x="153" y="238">address</text></g></g><g transform="translate(-110,-142) scale(1,1)"><g><path fill="none" stroke="none"></path><text fill="#000000" stroke="none" font-family="Arial" font-size="13px" font-style="normal" font-weight="normal" text-decoration="none" x="258" y="238">TEXT</text></g></g><g transform="translate(-110,-142) scale(1,1)"><g><path fill="none" stroke="none"></path><text fill="#000000" stroke="none" font-family="Arial" font-size="13px" font-style="normal" font-weight="normal" text-decoration="none" x="125" y="253">N</text></g></g><g transform="translate(-110,-142) scale(1,1)"><g><path fill="none" stroke="none"></path><text fill="#000000" stroke="none" font-family="Arial" font-size="13px" font-style="normal" font-weight="normal" text-decoration="none" x="153" y="253">place_id</text></g></g><g transform="translate(-110,-142) scale(1,1)"><g><path fill="none" stroke="none"></path><text fill="#000000" stroke="none" font-family="Arial" font-size="13px" font-style="normal" font-weight="normal" text-decoration="none" x="258" y="253">VARCHAR(255)</text></g></g><g transform="translate(-110,-142) scale(1,1)"><g><path fill="none" stroke="none"></path><text fill="#000000" stroke="none" font-family="Arial" font-size="13px" font-style="normal" font-weight="normal" text-decoration="none" x="125" y="268"></text></g></g><g transform="translate(-110,-142) scale(1,1)"><g><path fill="none" stroke="none"></path><text fill="#000000" stroke="none" font-family="Arial" font-size="13px" font-style="normal" font-weight="normal" text-decoration="none" x="153" y="268">long</text></g></g><g transform="translate(-110,-142) scale(1,1)"><g><path fill="none" stroke="none"></path><text fill="#000000" stroke="none" font-family="Arial" font-size="13px" font-style="normal" font-weight="normal" text-decoration="none" x="258" y="268">DOUBLE</text></g></g><g transform="translate(-110,-142) scale(1,1)"><g><path fill="none" stroke="none"></path><text fill="#000000" stroke="none" font-family="Arial" font-size="13px" font-style="normal" font-weight="normal" text-decoration="none" x="125" y="283"></text></g></g><g transform="translate(-110,-142) scale(1,1)"><g><path fill="none" stroke="none"></path><text fill="#000000" stroke="none" font-family="Arial" font-size="13px" font-style="normal" font-weight="normal" text-decoration="none" x="153" y="283">lat</text></g></g><g transform="translate(-110,-142) scale(1,1)"><g><path fill="none" stroke="none"></path><text fill="#000000" stroke="none" font-family="Arial" font-size="13px" font-style="normal" font-weight="normal" text-decoration="none" x="258" y="283">DOUBLE</text></g></g><g transform="translate(-110,-142) scale(1,1)"><rect fill="#C0C0C0" stroke="none" x="455" y="167" width="201" height="120" opacity="0.2"></rect></g><g transform="translate(-110,-142) scale(1,1)"><rect fill="#ffffff" stroke="none" x="448" y="160" width="201" height="120"></rect></g><g transform="translate(-110,-142) scale(1,1)"><path fill="none" stroke="#000000" d="M 448 160 L 649 160 L 649 280 L 448 280 L 448 160 Z Z" stroke-miterlimit="10"></path></g><g transform="translate(-110,-142) scale(1,1)"><path fill="none" stroke="#000000" d="M 448 183 L 649 183" stroke-miterlimit="10"></path></g><g transform="translate(-110,-142) scale(1,1)"><path fill="none" stroke="#000000" d="M 476 183 L 476 280" stroke-miterlimit="10"></path></g><g transform="translate(-110,-142) scale(1,1)"><path fill="none" stroke="#000000" d="M 562 183 L 562 280" stroke-miterlimit="10"></path></g><g transform="translate(-110,-142) scale(1,1)"><g><path fill="none" stroke="none"></path><text fill="#000000" stroke="none" font-family="Arial" font-size="13px" font-style="normal" font-weight="bold" text-decoration="none" x="531.5" y="177.5">Room</text></g></g><g transform="translate(-110,-142) scale(1,1)"><g><path fill="none" stroke="none"></path><text fill="#000000" stroke="none" font-family="Arial" font-size="13px" font-style="normal" font-weight="normal" text-decoration="none" x="453" y="201">PK</text></g></g><g transform="translate(-110,-142) scale(1,1)"><g><path fill="none" stroke="none"></path><text fill="#000000" stroke="none" font-family="Arial" font-size="13px" font-style="normal" font-weight="normal" text-decoration="none" x="481" y="201">room_id</text></g></g><g transform="translate(-110,-142) scale(1,1)"><g><path fill="none" stroke="none"></path><text fill="#000000" stroke="none" font-family="Arial" font-size="13px" font-style="normal" font-weight="normal" text-decoration="none" x="567" y="201">INTEGER(11)</text></g></g><g transform="translate(-110,-142) scale(1,1)"><g><path fill="none" stroke="none"></path><text fill="#000000" stroke="none" font-family="Arial" font-size="13px" font-style="normal" font-weight="normal" text-decoration="none" x="453" y="216">FK</text></g></g><g transform="translate(-110,-142) scale(1,1)"><g><path fill="none" stroke="none"></path><text fill="#000000" stroke="none" font-family="Arial" font-size="13px" font-style="normal" font-weight="normal" text-decoration="none" x="481" y="216">building_id</text></g></g><g transform="translate(-110,-142) scale(1,1)"><g><path fill="none" stroke="none"></path><text fill="#000000" stroke="none" font-family="Arial" font-size="13px" font-style="normal" font-weight="normal" text-decoration="none" x="567" y="216">INTEGER(11)</text></g></g><g transform="translate(-110,-142) scale(1,1)"><g><path fill="none" stroke="none"></path><text fill="#000000" stroke="none" font-family="Arial" font-size="13px" font-style="normal" font-weight="normal" text-decoration="none" x="453" y="231"></text></g></g><g transform="translate(-110,-142) scale(1,1)"><g><path fill="none" stroke="none"></path><text fill="#000000" stroke="none" font-family="Arial" font-size="13px" font-style="normal" font-weight="normal" text-decoration="none" x="481" y="231">room_code</text></g></g><g transform="translate(-110,-142) scale(1,1)"><g><path fill="none" stroke="none"></path><text fill="#000000" stroke="none" font-family="Arial" font-size="13px" font-style="normal" font-weight="normal" text-decoration="none" x="567" y="231">VARCHAR</text></g></g><g transform="translate(-110,-142) scale(1,1)"><g><path fill="none" stroke="none"></path><text fill="#000000" stroke="none" font-family="Arial" font-size="13px" font-style="normal" font-weight="normal" text-decoration="none" x="453" y="246"></text></g></g><g transform="translate(-110,-142) scale(1,1)"><g><path fill="none" stroke="none"></path><text fill="#000000" stroke="none" font-family="Arial" font-size="13px" font-style="normal" font-weight="normal" text-decoration="none" x="481" y="246">room_name</text></g></g><g transform="translate(-110,-142) scale(1,1)"><g><path fill="none" stroke="none"></path><text fill="#000000" stroke="none" font-family="Arial" font-size="13px" font-style="normal" font-weight="normal" text-decoration="none" x="567" y="246">VARCHAR</text></g></g><g transform="translate(-110,-142) scale(1,1)"><g><path fill="none" stroke="none"></path><text fill="#000000" stroke="none" font-family="Arial" font-size="13px" font-style="normal" font-weight="normal" text-decoration="none" x="453" y="261"></text></g></g><g transform="translate(-110,-142) scale(1,1)"><g><path fill="none" stroke="none"></path><text fill="#000000" stroke="none" font-family="Arial" font-size="13px" font-style="normal" font-weight="normal" text-decoration="none" x="481" y="261">floor</text></g></g><g transform="translate(-110,-142) scale(1,1)"><g><path fill="none" stroke="none"></path><text fill="#000000" stroke="none" font-family="Arial" font-size="13px" font-style="normal" font-weight="normal" text-decoration="none" x="567" y="261">INTEGER</text></g></g><g transform="translate(-110,-142) scale(1,1)"><g><path fill="none" stroke="none"></path><text fill="#000000" stroke="none" font-family="Arial" font-size="13px" font-style="normal" font-weight="normal" text-decoration="none" x="453" y="276"></text></g></g><g transform="translate(-110,-142) scale(1,1)"><g><path fill="none" stroke="none"></path><text fill="#000000" stroke="none" font-family="Arial" font-size="13px" font-style="normal" font-weight="normal" text-decoration="none" x="481" y="276">desc</text></g></g><g transform="translate(-110,-142) scale(1,1)"><g><path fill="none" stroke="none"></path><text fill="#000000" stroke="none" font-family="Arial" font-size="13px" font-style="normal" font-weight="normal" text-decoration="none" x="567" y="276">VARCHAR</text></g></g><g transform="translate(-110,-142) scale(1,1)"><path fill="none" stroke="#000000" d="M 358 220 L 448 220" stroke-miterlimit="10"></path></g><g transform="translate(-110,-142) scale(1,1)"><path fill="none" stroke="#000000" d="M 434 220 L 448 227" stroke-miterlimit="10"></path></g><g transform="translate(-110,-142) scale(1,1)"><path fill="none" stroke="#000000" d="M 434 220 L 448 213" stroke-miterlimit="10"></path></g><g transform="translate(-110,-142) scale(1,1)"><path fill="none" stroke="#000000" d="M 365 213 L 365 227" stroke-miterlimit="10"></path></g><g transform="translate(-110,-142) scale(1,1)"><g><path fill="none" stroke="none"></path><text fill="#000000" stroke="none" font-family="Arial" font-size="13px" font-style="normal" font-weight="normal" text-decoration="none" x="382.5" y="211.5"></text></g></g><g transform="translate(-110,-142) scale(1,1)"><g><path fill="none" stroke="none"></path><text fill="#000000" stroke="none" font-family="Arial" font-size="13px" font-style="normal" font-weight="normal" text-decoration="none" x="421.5" y="211.5"></text></g></g><g transform="translate(-110,-142) scale(1,1)"><rect fill="#C0C0C0" stroke="none" x="479" y="399" width="170" height="75" opacity="0.2"></rect></g><g transform="translate(-110,-142) scale(1,1)"><rect fill="#ffffff" stroke="none" x="472" y="392" width="170" height="75"></rect></g><g transform="translate(-110,-142) scale(1,1)"><path fill="none" stroke="#000000" d="M 472 392 L 642 392 L 642 467 L 472 467 L 472 392 Z Z" stroke-miterlimit="10"></path></g><g transform="translate(-110,-142) scale(1,1)"><path fill="none" stroke="#000000" d="M 472 415 L 642 415" stroke-miterlimit="10"></path></g><g transform="translate(-110,-142) scale(1,1)"><path fill="none" stroke="#000000" d="M 500 415 L 500 467" stroke-miterlimit="10"></path></g><g transform="translate(-110,-142) scale(1,1)"><path fill="none" stroke="#000000" d="M 577 415 L 577 467" stroke-miterlimit="10"></path></g><g transform="translate(-110,-142) scale(1,1)"><g><path fill="none" stroke="none"></path><text fill="#000000" stroke="none" font-family="Arial" font-size="13px" font-style="normal" font-weight="bold" text-decoration="none" x="534.5" y="409.5">Counter</text></g></g><g transform="translate(-110,-142) scale(1,1)"><g><path fill="none" stroke="none"></path><text fill="#000000" stroke="none" font-family="Arial" font-size="13px" font-style="normal" font-weight="normal" text-decoration="none" x="477" y="433">PK</text></g></g><g transform="translate(-110,-142) scale(1,1)"><g><path fill="none" stroke="none"></path><text fill="#000000" stroke="none" font-family="Arial" font-size="13px" font-style="normal" font-weight="normal" text-decoration="none" x="505" y="433">counter_id</text></g></g><g transform="translate(-110,-142) scale(1,1)"><g><path fill="none" stroke="none"></path><text fill="#000000" stroke="none" font-family="Arial" font-size="13px" font-style="normal" font-weight="normal" text-decoration="none" x="582" y="433">INTEGER</text></g></g><g transform="translate(-110,-142) scale(1,1)"><g><path fill="none" stroke="none"></path><text fill="#000000" stroke="none" font-family="Arial" font-size="13px" font-style="normal" font-weight="normal" text-decoration="none" x="477" y="448"></text></g></g><g transform="translate(-110,-142) scale(1,1)"><g><path fill="none" stroke="none"></path><text fill="#000000" stroke="none" font-family="Arial" font-size="13px" font-style="normal" font-weight="normal" text-decoration="none" x="505" y="448">room_id</text></g></g><g transform="translate(-110,-142) scale(1,1)"><g><path fill="none" stroke="none"></path><text fill="#000000" stroke="none" font-family="Arial" font-size="13px" font-style="normal" font-weight="normal" text-decoration="none" x="582" y="448">INTEGER</text></g></g><g transform="translate(-110,-142) scale(1,1)"><g><path fill="none" stroke="none"></path><text fill="#000000" stroke="none" font-family="Arial" font-size="13px" font-style="normal" font-weight="normal" text-decoration="none" x="477" y="463"></text></g></g><g transform="translate(-110,-142) scale(1,1)"><g><path fill="none" stroke="none"></path><text fill="#000000" stroke="none" font-family="Arial" font-size="13px" font-style="normal" font-weight="normal" text-decoration="none" x="505" y="463">hit</text></g></g><g transform="translate(-110,-142) scale(1,1)"><g><path fill="none" stroke="none"></path><text fill="#000000" stroke="none" font-family="Arial" font-size="13px" font-style="normal" font-weight="normal" text-decoration="none" x="582" y="463">INTEGER</text></g></g><g transform="translate(-110,-142) scale(1,1)"><path fill="none" stroke="#000000" d="M 541 280 L 541 392" stroke-miterlimit="10"></path></g><g transform="translate(-110,-142) scale(1,1)"><path fill="none" stroke="#000000" d="M 534 385 L 548 385" stroke-miterlimit="10"></path></g><g transform="translate(-110,-142) scale(1,1)"><path fill="none" stroke="#000000" d="M 548 287 L 534 287" stroke-miterlimit="10"></path></g><g transform="translate(-110,-142) scale(1,1)"><g><path fill="none" stroke="none"></path><text fill="#000000" stroke="none" font-family="Arial" font-size="13px" font-style="normal" font-weight="normal" text-decoration="none" x="555.5" y="311.5"></text></g></g><g transform="translate(-110,-142) scale(1,1)"><g><path fill="none" stroke="none"></path><text fill="#000000" stroke="none" font-family="Arial" font-size="13px" font-style="normal" font-weight="normal" text-decoration="none" x="555.5" y="372.5"></text></g></g></g></svg>